<?xml version="1.0"?>
<svg xmlns="http://www.w3.org/2000/svg" id="Icons" viewBox="0 0 74 74" width="512" height="512"><path d="M64.663,38.121a3.041,3.041,0,0,1-2.16-.9L41.833,16.494a3.049,3.049,0,0,1,.006-4.313l4.287-4.274a3.031,3.031,0,0,1,2.153-.89h0a3.025,3.025,0,0,1,2.155.9l20.67,20.731a3.049,3.049,0,0,1-.006,4.313l-4.287,4.275A3.039,3.039,0,0,1,64.663,38.121ZM48.279,9.016a1.045,1.045,0,0,0-.741.306L43.251,13.6a1.05,1.05,0,0,0,0,1.485h0l20.67,20.732a1.052,1.052,0,0,0,1.485,0l4.287-4.275a1.05,1.05,0,0,0,0-1.485L49.023,9.325a1.044,1.044,0,0,0-.742-.309Z"/><path d="M9.324,38.9h0A3.025,3.025,0,0,1,7.165,38L2.891,33.717A3.049,3.049,0,0,1,2.9,29.4L23.629,8.733h0a3.052,3.052,0,0,1,4.313.006l4.274,4.288a3.053,3.053,0,0,1-.007,4.313L11.478,38.011A3.031,3.031,0,0,1,9.324,38.9ZM25.041,10.149,4.309,30.82a1.05,1.05,0,0,0,0,1.485l4.274,4.288a1.042,1.042,0,0,0,.741.309h0a1.043,1.043,0,0,0,.741-.306L30.8,15.924a1.052,1.052,0,0,0,0-1.485l-4.274-4.288a1.052,1.052,0,0,0-1.485,0Z"/><path d="M56.631,51.324a4.569,4.569,0,0,1-3.24-1.34l-2.3-2.3a1,1,0,0,1,1.414-1.414l2.3,2.3a2.583,2.583,0,0,0,3.653-3.654L42.094,28.551V35.1a4.612,4.612,0,0,1-9.225,0V21.373a1,1,0,0,1,.494-.862A18.231,18.231,0,0,1,46.618,18.7a1,1,0,1,1-.4,1.959,16.247,16.247,0,0,0-11.349,1.3V35.1a2.612,2.612,0,0,0,5.225,0v-8.96A1,1,0,0,1,41.8,25.43L59.872,43.5a4.581,4.581,0,0,1-3.241,7.822Z"/><path d="M51.194,56.652a4.828,4.828,0,0,1-3.425-1.417L46,53.462a1,1,0,0,1,1.414-1.414l1.773,1.773a2.914,2.914,0,0,0,4.022,0,2.849,2.849,0,0,0,0-4.023l-1.773-1.773a1,1,0,0,1,1.414-1.414l1.773,1.773a4.842,4.842,0,0,1-3.426,8.268Z"/><path d="M46.077,61.863a4.6,4.6,0,0,1-3.265-1.35l-.553-.553a1,1,0,1,1,1.414-1.414l.553.553a2.618,2.618,0,0,0,3.7-3.7L46,53.463a1,1,0,0,1,1.414-1.414l1.934,1.934a4.615,4.615,0,0,1-3.266,7.88Z"/><path d="M40.961,66.984A4.585,4.585,0,0,1,37.7,65.631L35.763,63.7a1,1,0,0,1,1.414-1.414l1.934,1.933a2.68,2.68,0,0,0,3.7,0,2.623,2.623,0,0,0,0-3.7l-.553-.552a1,1,0,1,1,1.412-1.415l.554.553a4.617,4.617,0,0,1-3.265,7.883Z"/><path d="M32.313,66.734A4.395,4.395,0,0,1,29.2,65.445l-.288-.288a4.413,4.413,0,0,1,0-6.234l2.357-2.357a4.413,4.413,0,0,1,6.234,0l.288.288a4.414,4.414,0,0,1,0,6.234L35.43,65.445A4.395,4.395,0,0,1,32.313,66.734Zm2.069-9.458a2.4,2.4,0,0,0-1.7.7l-2.357,2.357a2.412,2.412,0,0,0,0,3.406l.288.288a2.412,2.412,0,0,0,3.406,0l2.356-2.357a2.411,2.411,0,0,0,0-3.406l-.288-.288A2.4,2.4,0,0,0,34.382,57.276Z"/><path d="M27.226,61.6a4.395,4.395,0,0,1-3.117-1.289l-.721-.719a4.414,4.414,0,0,1,0-6.235l2.322-2.322a4.413,4.413,0,0,1,6.234,0l.721.719a4.416,4.416,0,0,1,0,6.235l-2.323,2.322A4.394,4.394,0,0,1,27.226,61.6Zm1.6-9.855a2.4,2.4,0,0,0-1.7.7L24.8,54.774a2.411,2.411,0,0,0,0,3.406l.721.719a2.41,2.41,0,0,0,3.405,0l2.323-2.322a2.412,2.412,0,0,0,0-3.406l-.721-.719A2.4,2.4,0,0,0,28.827,51.748Z"/><path d="M21.681,56.067a4.408,4.408,0,0,1-3.117-7.525l2.322-2.322a4.408,4.408,0,0,1,6.234,6.234L24.8,54.776A4.38,4.38,0,0,1,21.681,56.067ZM24,46.93a2.4,2.4,0,0,0-1.7.7l-2.322,2.322a2.409,2.409,0,0,0,3.406,3.406l2.322-2.322A2.407,2.407,0,0,0,24,46.93Z"/><path d="M16.859,51.25a4.408,4.408,0,0,1-3.117-7.525L16.064,41.4A4.408,4.408,0,1,1,22.3,47.637l-2.322,2.322A4.38,4.38,0,0,1,16.859,51.25Zm2.322-9.137a2.4,2.4,0,0,0-1.7.7l-2.322,2.322a2.408,2.408,0,0,0,3.406,3.406l2.322-2.322a2.407,2.407,0,0,0-1.7-4.11Z"/><path d="M56.859,42.9a1,1,0,0,1-.5-1.869c2.209-1.259,2.118-6.584,1.912-8.351a1,1,0,0,1,.877-1.109.988.988,0,0,1,1.109.877c.1.831.84,8.185-2.908,10.32A.992.992,0,0,1,56.859,42.9Z"/><path d="M15.927,43.954a1,1,0,0,1-.907-.579,15.839,15.839,0,0,1-.4-11.146A1,1,0,1,1,16.5,32.9a14.039,14.039,0,0,0,.331,9.632,1,1,0,0,1-.908,1.418Z"/><path d="M33.869,22.373a.994.994,0,0,1-.351-.064,9.074,9.074,0,0,0-6.327-.109,1,1,0,1,1-.645-1.894,11.14,11.14,0,0,1,7.673.129,1,1,0,0,1-.351,1.937Z"/></svg>
